<svg width="11" height="10" viewBox="0 0 11 10" fill="none" xmlns="http://www.w3.org/2000/svg">
<path d="M3.66663 2.91666V4.58332L0.916626 2.49999L3.66663 0.416656V2.08332H5.95829C6.93075 2.08332 7.86338 2.43451 8.55102 3.05963C9.23865 3.68476 9.62496 4.5326 9.62496 5.41666C9.62496 6.30071 9.23865 7.14856 8.55102 7.77368C7.86338 8.3988 6.93075 8.74999 5.95829 8.74999H1.83329V7.91666H5.95829C6.68764 7.91666 7.38711 7.65326 7.90284 7.18442C8.41856 6.71558 8.70829 6.0797 8.70829 5.41666C8.70829 4.75362 8.41856 4.11773 7.90284 3.64889C7.38711 3.18005 6.68764 2.91666 5.95829 2.91666H3.66663Z" fill="white"/>
</svg>
