<svg width="18" height="18" viewBox="0 0 18 18" fill="none" xmlns="http://www.w3.org/2000/svg">
<path d="M10.0605 3.75H15C15.1989 3.75 15.3897 3.82902 15.5304 3.96967C15.671 4.11032 15.75 4.30109 15.75 4.5V5.25H2.25003V3C2.25003 2.80109 2.32905 2.61032 2.4697 2.46967C2.61035 2.32902 2.80112 2.25 3.00003 2.25H8.56053L10.0605 3.75ZM2.31528 6.75H15.6848C15.7885 6.74995 15.8912 6.77144 15.9862 6.8131C16.0813 6.85476 16.1666 6.91569 16.2369 6.99203C16.3072 7.06837 16.3609 7.15847 16.3945 7.25662C16.4282 7.35477 16.4411 7.45884 16.4325 7.56225L15.807 15.0623C15.7914 15.2497 15.706 15.4244 15.5676 15.5518C15.4293 15.6791 15.2481 15.7499 15.06 15.75H2.94003C2.75196 15.7499 2.5708 15.6791 2.43245 15.5518C2.29409 15.4244 2.20864 15.2497 2.19303 15.0623L1.56753 7.56225C1.55892 7.45884 1.57186 7.35477 1.60553 7.25662C1.6392 7.15847 1.69288 7.06837 1.76316 6.99203C1.83344 6.91569 1.91879 6.85476 2.01383 6.8131C2.10887 6.77144 2.21151 6.74995 2.31528 6.75Z" fill="white"/>
</svg>
