<svg width="15" height="15" viewBox="0 0 15 15" fill="none" xmlns="http://www.w3.org/2000/svg">
<path d="M3.75 5V4.375C3.75 3.38044 4.14509 2.42661 4.84835 1.72335C5.55161 1.02009 6.50544 0.625 7.5 0.625C8.49456 0.625 9.44839 1.02009 10.1517 1.72335C10.8549 2.42661 11.25 3.38044 11.25 4.375V5H12.5C12.6658 5 12.8247 5.06585 12.9419 5.18306C13.0592 5.30027 13.125 5.45924 13.125 5.625V13.125C13.125 13.2908 13.0592 13.4497 12.9419 13.5669C12.8247 13.6842 12.6658 13.75 12.5 13.75H2.5C2.33424 13.75 2.17527 13.6842 2.05806 13.5669C1.94085 13.4497 1.875 13.2908 1.875 13.125V5.625C1.875 5.45924 1.94085 5.30027 2.05806 5.18306C2.17527 5.06585 2.33424 5 2.5 5H3.75ZM11.875 6.25H3.125V12.5H11.875V6.25ZM6.875 9.8325C6.6367 9.69492 6.45045 9.48254 6.34515 9.22832C6.23985 8.9741 6.22137 8.69224 6.29259 8.42644C6.36381 8.16065 6.52074 7.92579 6.73905 7.75828C6.95735 7.59076 7.22483 7.49997 7.5 7.49997C7.77517 7.49997 8.04265 7.59076 8.26095 7.75828C8.47926 7.92579 8.63619 8.16065 8.70741 8.42644C8.77863 8.69224 8.76015 8.9741 8.65485 9.22832C8.54955 9.48254 8.3633 9.69492 8.125 9.8325V11.25H6.875V9.8325ZM5 5H10V4.375C10 3.71196 9.73661 3.07607 9.26777 2.60723C8.79893 2.13839 8.16304 1.875 7.5 1.875C6.83696 1.875 6.20107 2.13839 5.73223 2.60723C5.26339 3.07607 5 3.71196 5 4.375V5Z" fill="black"/>
</svg>
