<svg width="80" height="80" viewBox="0 0 80 80" fill="none" xmlns="http://www.w3.org/2000/svg">
<path d="M40 3.33333L67.39 9.41999C68.1302 9.58454 68.7922 9.99655 69.2667 10.588C69.7412 11.1795 69.9999 11.915 70 12.6733V45.9633C69.9998 49.2558 69.1867 52.4972 67.633 55.4C66.0792 58.3028 63.8329 60.7771 61.0933 62.6033L40 76.6667L18.9067 62.6033C16.1676 60.7774 13.9215 58.3036 12.3678 55.4015C10.8141 52.4993 10.0008 49.2585 10 45.9667V12.6733C10.0001 11.915 10.2588 11.1795 10.7333 10.588C11.2078 9.99655 11.8698 9.58454 12.61 9.41999L40 3.33333ZM40 10.1633L16.6667 15.3467V45.9633C16.6667 48.1582 17.2086 50.3191 18.2442 52.2543C19.2798 54.1895 20.7772 55.8391 22.6033 57.0567L40 68.6567L57.3967 57.0567C59.2224 55.8394 60.7194 54.1903 61.755 52.2558C62.7906 50.3212 63.3327 48.161 63.3333 45.9667V15.3467L40 10.1667V10.1633ZM40 23.3333C41.4678 23.3327 42.8948 23.8164 44.0596 24.7095C45.2244 25.6027 46.0619 26.8552 46.4421 28.2729C46.8224 29.6906 46.7241 31.1941 46.1626 32.5503C45.6011 33.9064 44.6078 35.0394 43.3367 35.7733L43.3333 50H36.6667V35.7733C35.3958 35.0395 34.4026 33.9069 33.841 32.551C33.2795 31.1952 33.181 29.692 33.5608 28.2745C33.9406 26.857 34.7775 25.6044 35.9418 24.7111C37.106 23.8177 38.5325 23.3334 40 23.3333Z" fill="#626262"/>
</svg>
